<?xml version="1.0" encoding="UTF-8"?>
<svg id="Layer_1" xmlns="http://www.w3.org/2000/svg" version="1.1" viewBox="0 0 595.28 841.89">
  <!-- Generator: Adobe Illustrator 29.8.4, SVG Export Plug-In . SVG Version: 2.1.1 Build 6)  -->
  <defs>
    <style>
      .st0 {
        fill: #4a2f25;
        stroke: #f49d31;
        stroke-width: .5px;
      }

      .st0, .st1, .st2 {
        stroke-miterlimit: 10;
      }

      .st3 {
        fill: #f49d31;
      }

      .st1 {
        stroke-width: .25px;
      }

      .st1, .st2 {
        fill: none;
        stroke: #67b2e2;
        stroke-linecap: round;
      }

      .st2 {
        stroke-width: 2px;
      }

      .st4 {
        fill: #67b2e2;
      }
    </style>
  </defs>
  <path class="st3" d="M413.24,503.23v-54.05c0-7.42,6.01-13.43,13.43-13.43h0c7.42,0,13.43,6.01,13.43,13.43v54.05c0,7.42-6.01,13.43-13.43,13.43h0c-7.42,0-13.43-6.01-13.43-13.43Z"/>
  <path class="st3" d="M34.06,509.16c0-4.14,3.36-7.5,7.5-7.5h17.64c.65,0,.97-.65.97-1.4v-.32h-18.61c-4.14,0-7.5-3.36-7.5-7.5v-40.84c0-9.49,6.15-15.86,16.4-15.86h27.13c4.14,0,7.5,3.36,7.5,7.5v32.8c0,4.14-3.36,7.5-7.5,7.5h-9.39c-4.14,0-7.5-3.36-7.5-7.5v-25.84h-.76c-.65,0-.97.97-.97,1.94v25.62c0,4.14,3.36,7.5,7.5,7.5h11.11c4.14,0,7.5,3.36,7.5,7.5v8.04c0,9.49-5.83,15.86-16.08,15.86h-27.46c-4.14,0-7.5-3.36-7.5-7.5h0Z"/>
  <path class="st3" d="M121.99,516.66h-32.58c-1.49,0-2.7-1.21-2.7-2.7v-75.52c0-1.49,1.21-2.7,2.7-2.7h19.53c1.49,0,2.7,1.21,2.7,2.7h0c0,1.49,1.21,2.7,2.7,2.7h20.71c1.49,0,2.7,1.21,2.7,2.7v9.28c0,1.49-1.21,2.7-2.7,2.7h-20.71c-1.49,0-2.7,1.21-2.7,2.7v43.59h.97c.43,0,.76-.76.76-1.51v-40.35c0-1.49,1.21-2.7,2.7-2.7h18.99c1.49,0,2.7,1.21,2.7,2.7v40.89c0,8.74-6.47,15.54-15.75,15.54Z"/>
  <path class="st3" d="M183.16,516.66h-36.36c-4.05,0-7.34-3.28-7.34-7.34v-66.24c0-4.05,3.28-7.34,7.34-7.34h36.36c4.05,0,7.34,3.28,7.34,7.34v33.12c0,4.05-3.28,7.34-7.34,7.34h-9.71c-4.05,0-7.34-3.28-7.34-7.34v-25.14c0-.48-.39-.86-.86-.86h0c-.48,0-.86.39-.86.86v26.86c0,4.05,3.28,7.34,7.34,7.34h11.44c4.05,0,7.34,3.28,7.34,7.34h0c0,4.05-3.28,7.34-7.34,7.34h-17.91c-.48,0-.86.39-.86.86h0c0,.48.39.86.86.86h17.91c4.05,0,7.34,3.28,7.34,7.34v.32c0,4.05-3.28,7.34-7.34,7.34Z"/>
  <path class="st3" d="M204.42,435.75h.54c6.73,0,12.19,5.46,12.19,12.19v53.3c0,.48.39.86.86.86h0c.48,0,.86-.39.86-.86v-36.57c0-6.73,5.4-7.58,12.14-7.58h0c6.73,0,12.25.85,12.25,7.58v39.81c0,6.73-5.46,12.19-12.19,12.19h-26.65c-6.73,0-12.19-5.46-12.19-12.19v-56.53c0-6.73,5.46-12.19,12.19-12.19Z"/>
  <path class="st3" d="M446.24,435.75h29.93c9.58,0,17.35,7.77,17.35,17.35v48.03c0,8.74-6.58,15.54-15.86,15.54h-31.42c-2.43,0-4.4-1.97-4.4-4.4v-72.11c0-2.43,1.97-4.4,4.4-4.4ZM467.62,450.2c-.48,0-.86.39-.86.86v51.03h.97c.43,0,.76-.76.76-1.51v-49.52c0-.48-.39-.86-.86-.86h0Z"/>
  <path class="st3" d="M520.92,500.48h0c-.48,0-.86.39-.86.86v2.86c0,6.88-5.58,12.46-12.46,12.46h0c-6.88,0-12.46-5.58-12.46-12.46v-47.36c0-11.65,9.44-21.1,21.1-21.1h8.83c11.96,0,21.65,9.69,21.65,21.65v46.81c0,6.88-5.58,12.46-12.46,12.46h0c-6.88,0-12.46-5.58-12.46-12.46v-2.86c0-.48-.39-.86-.86-.86ZM520.92,485.91h0c.48,0,.86-.39.86-.86v-33.98c0-.48-.39-.86-.86-.86h0c-.48,0-.86.39-.86.86v33.98c0,.48.39.86.86.86Z"/>
  <path class="st3" d="M385.83,487.31c.65-.03,1.57.15,1.67-.71l-.25-38.12c-.56-7.16,5.02-12.74,11.91-12.74h0c6.88,0,12.46,5.58,12.46,12.46v41.05c0,15.12-15.43,27.4-25.79,27.4h0c-6.88,0-25.79-12.99-25.79-25.96v-42.5c0-6.88,5.58-12.46,12.46-12.46h0c6.88,0,12.31,5.55,12.31,12.43,0,0,.14,29.46.14,39.13"/>
  <path class="st3" d="M323.32,500.48h0c-.48,0-.86.39-.86.86v2.86c0,6.88-5.58,12.46-12.46,12.46h0c-6.88,0-12.46-5.58-12.46-12.46v-55.99c0-6.88,5.58-12.46,12.46-12.46h26.65c6.88,0,12.46,5.58,12.46,12.46v55.99c0,6.88-5.58,12.46-12.46,12.46h0c-6.88,0-12.46-5.58-12.46-12.46v-2.86c0-.48-.39-.86-.86-.86ZM323.32,485.91h0c.48,0,.86-.39.86-.86v-33.98c0-.48-.39-.86-.86-.86h0c-.48,0-.86.39-.86.86v33.98c0,.48.39.86.86.86Z"/>
  <path class="st0" d="M413.24,503.23v-54.05c0-7.42,6.01-13.43,13.43-13.43h0c7.42,0,13.43,6.01,13.43,13.43v54.05c0,7.42-6.01,13.43-13.43,13.43h0c-7.42,0-13.43-6.01-13.43-13.43Z"/>
  <path class="st0" d="M34.06,509.16c0-4.14,3.36-7.5,7.5-7.5h17.64c.65,0,.97-.65.97-1.4v-.32h-18.61c-4.14,0-7.5-3.36-7.5-7.5v-40.84c0-9.49,6.15-15.86,16.4-15.86h27.13c4.14,0,7.5,3.36,7.5,7.5v32.8c0,4.14-3.36,7.5-7.5,7.5h-9.39c-4.14,0-7.5-3.36-7.5-7.5v-25.84h-.76c-.65,0-.97.97-.97,1.94v25.62c0,4.14,3.36,7.5,7.5,7.5h11.11c4.14,0,7.5,3.36,7.5,7.5v8.04c0,9.49-5.83,15.86-16.08,15.86h-27.46c-4.14,0-7.5-3.36-7.5-7.5h0Z"/>
  <path class="st0" d="M121.99,516.66h-32.58c-1.49,0-2.7-1.21-2.7-2.7v-75.52c0-1.49,1.21-2.7,2.7-2.7h19.53c1.49,0,2.7,1.21,2.7,2.7h0c0,1.49,1.21,2.7,2.7,2.7h20.71c1.49,0,2.7,1.21,2.7,2.7v9.28c0,1.49-1.21,2.7-2.7,2.7h-20.71c-1.49,0-2.7,1.21-2.7,2.7v43.59h.97c.43,0,.76-.76.76-1.51v-40.35c0-1.49,1.21-2.7,2.7-2.7h18.99c1.49,0,2.7,1.21,2.7,2.7v40.89c0,8.74-6.47,15.54-15.75,15.54Z"/>
  <path class="st0" d="M183.16,516.66h-36.36c-4.05,0-7.34-3.28-7.34-7.34v-66.24c0-4.05,3.28-7.34,7.34-7.34h36.36c4.05,0,7.34,3.28,7.34,7.34v33.12c0,4.05-3.28,7.34-7.34,7.34h-9.71c-4.05,0-7.34-3.28-7.34-7.34v-25.14c0-.48-.39-.86-.86-.86h0c-.48,0-.86.39-.86.86v26.86c0,4.05,3.28,7.34,7.34,7.34h11.44c4.05,0,7.34,3.28,7.34,7.34h0c0,4.05-3.28,7.34-7.34,7.34h-17.91c-.48,0-.86.39-.86.86h0c0,.48.39.86.86.86h17.91c4.05,0,7.34,3.28,7.34,7.34v.32c0,4.05-3.28,7.34-7.34,7.34Z"/>
  <path class="st0" d="M204.42,435.75h.54c6.73,0,12.19,5.46,12.19,12.19v53.3c0,.48.39.86.86.86h0c.48,0,.86-.39.86-.86v-36.57c0-6.73,5.4-7.58,12.14-7.58h0c6.73,0,12.25.85,12.25,7.58v39.81c0,6.73-5.46,12.19-12.19,12.19h-26.65c-6.73,0-12.19-5.46-12.19-12.19v-56.53c0-6.73,5.46-12.19,12.19-12.19Z"/>
  <path class="st0" d="M446.24,435.75h29.93c9.58,0,17.35,7.77,17.35,17.35v48.03c0,8.74-6.58,15.54-15.86,15.54h-31.42c-2.43,0-4.4-1.97-4.4-4.4v-72.11c0-2.43,1.97-4.4,4.4-4.4ZM467.62,450.2c-.48,0-.86.39-.86.86v51.03h.97c.43,0,.76-.76.76-1.51v-49.52c0-.48-.39-.86-.86-.86h0Z"/>
  <path class="st0" d="M520.92,500.48h0c-.48,0-.86.39-.86.86v2.86c0,6.88-5.58,12.46-12.46,12.46h0c-6.88,0-12.46-5.58-12.46-12.46v-47.36c0-11.65,9.44-21.1,21.1-21.1h8.83c11.96,0,21.65,9.69,21.65,21.65v46.81c0,6.88-5.58,12.46-12.46,12.46h0c-6.88,0-12.46-5.58-12.46-12.46v-2.86c0-.48-.39-.86-.86-.86ZM520.92,485.91h0c.48,0,.86-.39.86-.86v-33.98c0-.48-.39-.86-.86-.86h0c-.48,0-.86.39-.86.86v33.98c0,.48.39.86.86.86Z"/>
  <g>
    <path class="st2" d="M306.1,432.25l-7,16.9-11.31-15.51c-.8-1.09-.84-2.56-.08-3.68,23.84-35.4,33.73-21.14,33.73-21.14,0,0-.39,23.53,62.91,0,.16-.06.2-.28.06-.38l-3.31-2.46s-19.49-4.49-17.42-18.97c0,0,8.92-11.14,6.39-32.23-.02-.16.11-.3.28-.29l2.97.24"/>
    <path class="st2" d="M299.11,449.15s-3.48,5.5.59,21.41c.09.34.12.69.09,1.04-.2,2.67-1.44,15.23-7.92,36.43-.26.86.17,1.78,1.03,2.12,5.45,2.12,25.77,8.87,60.02,6.94"/>
    <path class="st2" d="M285.3,427.85c-.47,10.48-1.42,21.08,2.65,30.3,4.07,9.21,6.37,18.35,9.08,27.57,0,5.27-.91,10.95-3.63,16.22-12.2,0-19.42-10.95-20.77-20.17-1.36-14.48,7.8-32.11-7.19-43.27,0,0-6.97-7.55,0-15.81-.2.4,2.24-1.95,4.71-1.48,1.35.25,4.04,1.32,6.13,2.19,1.68.71,2.67,2.42,2.43,4.18v.02c-.06.45-.48.76-.94.71l-6.59-.74c-1.27-1.19-2.99,4.22-2.42,2.4"/>
    <polyline class="st2" points="278.51 425.73 278.51 422.43 278.51 420.02"/>
    <path class="st2" d="M270.68,420.73c3.03-4.06,7.68-.28,7.68-.28l1.88-3.83s1.11-1.59,2-1.32c.86.26,3.4-.19,3.07,12.55"/>
    <path class="st2" d="M280.94,416.14s-17.31-7.24-15.5,6.54"/>
    <path class="st2" d="M268.29,415.27c-.68-2.05,2.61-6.79,4.83-11.34,2.7-5.54,4.87-3.31,5.39-1.95.52,1.37-1.41,5.41-2.61,7.2-1.59,2.37-2.32,4.26-3.33,5.07"/>
    <path class="st2" d="M271.12,402.8s1.83,1.22,2.89-.41c.58-.89-.89,1.54-.89,1.54,0,0-13.95-8.09-14.14-5.51.14.09-2.5,3.13,12.24,8.46"/>
    <path class="st2" d="M370.39,354.46s-5.66,1.51-4.49-8.1-2.21-11.76-5.17-12.76-14.91-1.15-17.27,7.89c-1.3,4.99-2.81,10.2-6.08,14.49-2.65,3.48-9.32,7.86-14.32,8.31"/>
    <path class="st2" d="M336.98,357.03s8.15-.29,4.17,13.76c-.12-.03-.98,3.91,5.68,3.07"/>
    <path class="st2" d="M326.39,364.04c-1.66-2.62-.24,43.84,29.41,30.96"/>
    <path class="st2" d="M332.04,388.72s6.05,19.28-12.05,18.55"/>
    <path class="st2" d="M351.67,357.94s4.46-4.11,10.25,0"/>
    <g>
      <path class="st4" d="M354.58,375.67"/>
      <path class="st2" d="M354.58,375.67"/>
    </g>
    <g>
      <path class="st4" d="M334.86,375.97s-2.72,1.11-.4,2.52c0,0,.68.84,2.13-1.51,0,0,.33-1.3-1.73-1.01Z"/>
      <path class="st1" d="M334.86,375.97s-2.72,1.11-.4,2.52c0,0,.68.84,2.13-1.51,0,0,.33-1.3-1.73-1.01Z"/>
    </g>
    <g>
      <path class="st4" d="M354.74,375.67s-1.58,1.67,2.14,3.88c0,0,1.32-5.29-2.14-3.88Z"/>
      <path class="st1" d="M354.74,375.67s-1.58,1.67,2.14,3.88c0,0,1.32-5.29-2.14-3.88Z"/>
    </g>
    <g>
      <path class="st4" d="M336.89,379.64s2.08,6.61,8.29,6.69c0,0,5.07.41,7.69-7.37,0,0,.95-1.25-7.94,1.41,0,0-8.59-2.04-8.03-.72Z"/>
      <path class="st1" d="M336.89,379.64s2.08,6.61,8.29,6.69c0,0,5.07.41,7.69-7.37,0,0,.95-1.25-7.94,1.41,0,0-8.59-2.04-8.03-.72Z"/>
    </g>
    <path class="st2" d="M316.68,406.11s-10.23-1.92-7.48-14.8c.05-.21-.03-.44-.21-.56-1.48-1.03-7.85-6.25-2.86-16.48.08-.16.07-.35-.04-.49-1.13-1.43-6.98-9.82,3.62-18.64.46-.38.59-1.01.31-1.53-1.35-2.57-3.64-10.9,13.46-23.24.18-.13.33-.29.45-.47,1.47-2.3,12.81-18.48,34.26-8.11.43.21.93.29,1.4.19,3.38-.71,18.08-2.55,19.31,18.55.02.33.27.61.61.65,2.33.31,10.62,2.4,5.7,16.52-.05.13-.01.27.1.36,1.24.98,8.24,7.4-2.62,20.47-.14.17-.14.42.02.58,1.26,1.3,6.07,7.29-.2,17.26-.09.14-.11.3-.06.45.44,1.36,2.52,8.3-.9,9.01-3.75.78,22.64,1.65,27.64,30.44.12.69-.05,1.39-.47,1.96-3.2,4.35-17.64,23.19-28.17,23.28l.42-6.57"/>
    <path class="st2" d="M380.53,461.53s-7.25,32.15.58,49.13"/>
    <path class="st2" d="M377.73,496.09s8.53,21.99,41.57-14.48l-2.93-2.99"/>
    <path class="st2" d="M418.21,480.5s7.76,2.51,12.83-2.99c3.32-3.6.66-5.02-4.07-5.52-.74.18-4.81-.86-.5-4.33,0,0-4.02-1.86.51-4.4,0,0-4.48-6.99,10.45-7.68,0,0,2.92-.3,1.65,3.96l-12.03,3.32"/>
    <path class="st2" d="M437.85,460.13s3.71,2.72.74,5.81l-12.12,1.72"/>
    <path class="st2" d="M437.9,466.04c2.62.67,3.26,5.49-7.59,6.46"/>
    <path class="st2" d="M383.75,484.85s1.29-6.03,17.66-10.91c0,0,9.08-4.06,16.61-13.69,0,0,.84-1.51,12.07-8.12l1.33-.84s-17.69-7.59-15.5-25.55,4.74-16.37,4.74-16.37l23.11.24c.6,0,1.18.25,1.55.72,1.27,1.59,3.97,6.03,4.37,15.35.52,12.26-5.65,19.47-16.44,26.1.15-.03-.95.71-.14,4.12"/>
    <path class="st2" d="M448.64,425.27s-9.38,1.44-14.23.67c-4.85-.78-5.06-2.28-18.49-.2"/>
    <g>
      <path class="st4" d="M431.04,477.51s2.51,4.65-12.24,8.68c0,0-2.3,2.69,4.52,2.24,0,0,21.75,1.34,22.49-1.34,0,0,1.82-.77-8.22-4,0,0-4.95-4.49-4.04-10.6"/>
      <path class="st1" d="M431.04,477.51s2.51,4.65-12.24,8.68c0,0-2.3,2.69,4.52,2.24,0,0,21.75,1.34,22.49-1.34,0,0,1.82-.77-8.22-4,0,0-4.95-4.49-4.04-10.6"/>
    </g>
    <path class="st2" d="M404.02,444.2s2.41,13.85-2.61,29.74"/>
  </g>
  <path class="st0" d="M385.83,487.31c.65-.03,1.57.15,1.67-.71l-.25-38.12c-.56-7.16,5.02-12.74,11.91-12.74h0c6.88,0,12.46,5.58,12.46,12.46v41.05c0,15.12-15.43,27.4-25.79,27.4h0c-6.88,0-25.79-12.99-25.79-25.96v-42.5c0-6.88,5.58-12.46,12.46-12.46h0c6.88,0,12.31,5.55,12.31,12.43,0,0,.14,29.46.14,39.13"/>
  <path class="st0" d="M323.32,500.48h0c-.48,0-.86.39-.86.86v2.86c0,6.88-5.58,12.46-12.46,12.46h0c-6.88,0-12.46-5.58-12.46-12.46v-55.99c0-6.88,5.58-12.46,12.46-12.46h26.65c6.88,0,12.46,5.58,12.46,12.46v55.99c0,6.88-5.58,12.46-12.46,12.46h0c-6.88,0-12.46-5.58-12.46-12.46v-2.86c0-.48-.39-.86-.86-.86ZM323.32,485.91h0c.48,0,.86-.39.86-.86v-33.98c0-.48-.39-.86-.86-.86h0c-.48,0-.86.39-.86.86v33.98c0,.48.39.86.86.86Z"/>
  <path class="st0" d="M257.07,435.75h.54c6.73,0,12.19,5.46,12.19,12.19v53.3c0,.48.39.86.86.86h0c.48,0,.86-.39.86-.86v-36.57c0-6.73,5.4-7.58,12.14-7.58h0c6.73,0,12.25.85,12.25,7.58v39.81c0,6.73-5.46,12.19-12.19,12.19h-26.65c-6.73,0-12.19-5.46-12.19-12.19v-56.53c0-6.73,5.46-12.19,12.19-12.19Z"/>
</svg>